<svg width="21" height="29" viewBox="0 0 21 29" fill="none" xmlns="http://www.w3.org/2000/svg">
<path d="M8.64297 18.3308L7.06599 19.9077C8.15233 20.5676 9.40095 20.9119 10.672 20.9021C13.9967 20.9021 16.6986 18.6522 16.6986 15.8799V12.8666C16.6986 12.6002 16.8045 12.3447 16.9928 12.1563C17.1812 11.968 17.4367 11.8621 17.7031 11.8621C17.9695 11.8621 18.225 11.968 18.4133 12.1563C18.6017 12.3447 18.7075 12.6002 18.7075 12.8666V15.8799C18.7075 19.4557 15.6339 22.4189 11.6764 22.8508V26.9288H15.6942C15.9606 26.9288 16.2161 27.0346 16.4044 27.223C16.5928 27.4114 16.6986 27.6669 16.6986 27.9333C16.6986 28.1997 16.5928 28.4551 16.4044 28.6435C16.2161 28.8319 15.9606 28.9377 15.6942 28.9377H5.64972C5.38333 28.9377 5.12784 28.8319 4.93947 28.6435C4.7511 28.4551 4.64528 28.1997 4.64528 27.9333C4.64528 27.6669 4.7511 27.4114 4.93947 27.223C5.12784 27.0346 5.38333 26.9288 5.64972 26.9288H9.66751V22.8508C8.21389 22.7062 6.82263 22.1871 5.62964 21.3441L2.3451 24.6286C2.15468 24.8154 1.89863 24.9199 1.63194 24.9199C1.36525 24.9199 1.1092 24.8154 0.918784 24.6286C0.730599 24.439 0.625 24.1826 0.625 23.9155C0.625 23.6483 0.730599 23.392 0.918784 23.2023L7.21666 16.9044L8.73337 15.3877L12.6808 11.4403L18.9988 5.12229C19.0923 5.02801 19.2035 4.95313 19.3261 4.90193C19.4486 4.85074 19.58 4.82425 19.7128 4.82398C19.8456 4.82371 19.9772 4.84966 20.0999 4.90035C20.2226 4.95105 20.3341 5.02548 20.428 5.11938C20.5219 5.21328 20.5964 5.32479 20.6471 5.44753C20.6978 5.57027 20.7237 5.70181 20.7234 5.8346C20.7232 5.96739 20.6967 6.09882 20.6455 6.22135C20.5943 6.34388 20.5194 6.45509 20.4251 6.54861L14.6897 12.284V14.8755C14.6899 15.4031 14.5861 15.9257 14.3842 16.4132C14.1823 16.9007 13.8864 17.3437 13.5133 17.7168C13.1402 18.0899 12.6972 18.3858 12.2097 18.5877C11.7221 18.7896 11.1996 18.8934 10.672 18.8932C9.95685 18.8953 9.25493 18.7007 8.64297 18.3308Z" fill="white"/>
<path d="M4.83609 17.1153L3.28925 18.6622C2.94466 17.9641 2.73346 17.2079 2.66649 16.4323C2.64616 16.2488 2.6361 16.0644 2.63636 15.8798V12.8665C2.63636 12.6001 2.74218 12.3446 2.93055 12.1563C3.11892 11.9679 3.37441 11.8621 3.6408 11.8621C3.9072 11.8621 4.16268 11.9679 4.35105 12.1563C4.53942 12.3446 4.64525 12.6001 4.64525 12.8665V15.8798C4.64241 16.2992 4.70685 16.7163 4.83609 17.1153Z" fill="white"/>
<path d="M14.6897 4.83079V7.26155L6.6742 15.277C6.66416 15.1465 6.65411 15.0058 6.65411 14.8753V4.83079C6.65398 3.79994 7.05008 2.80848 7.76048 2.0615C8.47087 1.31451 9.4412 0.869149 10.4708 0.817542C11.5003 0.765935 12.5103 1.11203 13.2918 1.78423C14.0734 2.45644 14.5666 3.40332 14.6696 4.42901C14.6796 4.55959 14.6897 4.70021 14.6897 4.83079Z" fill="white"/>
</svg>
