<svg width="24" height="24" viewBox="0 0 24 24" fill="none" xmlns="http://www.w3.org/2000/svg">
<mask id="mask0_867_1278" style="mask-type:alpha" maskUnits="userSpaceOnUse" x="0" y="0" width="24" height="24">
<rect width="24" height="24" fill="#D9D9D9"/>
</mask>
<g mask="url(#mask0_867_1278)">
<path d="M9 12C9 13.2723 10.0354 14.3076 11.3077 14.3076C12.58 14.3076 13.6154 13.2723 13.6154 12C13.6154 10.7276 12.58 9.69226 11.3077 9.69226C10.0354 9.69226 9 10.7276 9 12Z" fill="#17B7BC"/>
<path d="M9 19.6923C9 20.9646 10.0354 22 11.3077 22C12.58 22 13.6154 20.9646 13.6154 19.6923C13.6154 18.42 12.58 17.3846 11.3077 17.3846C10.0354 17.3846 9 18.42 9 19.6923Z" fill="#17B7BC"/>
<path d="M9 4.30769C9 5.58 10.0354 6.61538 11.3077 6.61538C12.58 6.61538 13.6154 5.58 13.6154 4.30769C13.6154 3.03538 12.58 2 11.3077 2C10.0354 2 9 3.03538 9 4.30769Z" fill="#17B7BC"/>
</g>
</svg>
