<svg width="84" height="84" viewBox="0 0 84 84" fill="none" xmlns="http://www.w3.org/2000/svg">
<mask id="mask0_867_861" style="mask-type:alpha" maskUnits="userSpaceOnUse" x="0" y="0" width="84" height="84">
<rect width="84" height="84" fill="#D9D9D9"/>
</mask>
<g mask="url(#mask0_867_861)">
<path d="M40.621 41.2348C48.4038 41.2348 54.7136 33.5712 54.7136 24.1176C54.7136 14.6638 52.642 7.00024 40.621 7.00024C28.6 7.00024 26.528 14.6638 26.528 24.1176C26.528 33.5712 32.8378 41.2348 40.621 41.2348Z" fill="white"/>
<path d="M14.0029 67.3702C14.0005 66.7938 13.9981 67.2078 14.0029 67.3702V67.3702Z" fill="white"/>
<path d="M67.2382 67.8207C67.2458 67.6629 67.2408 66.7259 67.2382 67.8207V67.8207Z" fill="white"/>
<path d="M67.2081 66.6792C66.9471 50.2109 64.7963 45.5183 48.3377 42.5479C48.3377 42.5479 46.0209 45.5001 40.6209 45.5001C35.2209 45.5001 32.9037 42.5479 32.9037 42.5479C16.6247 45.4859 14.3431 50.1088 14.0431 66.1442C14.0185 67.4536 14.0071 67.5224 14.0027 67.3704C14.0037 67.6552 14.0049 68.182 14.0049 69.1006C14.0049 69.1006 17.9233 76.9998 40.6209 76.9998C63.3181 76.9998 67.2369 69.1006 67.2369 69.1006C67.2369 68.5104 67.2373 68.1001 67.2379 67.8209C67.2335 67.9149 67.2247 67.7326 67.2081 66.6792Z" fill="white"/>
</g>
</svg>
