<svg width="35" height="35" viewBox="0 0 35 35" fill="none" xmlns="http://www.w3.org/2000/svg">
<mask id="mask0_446_1088" style="mask-type:alpha" maskUnits="userSpaceOnUse" x="0" y="0" width="35" height="35">
<rect x="0.625" y="0.695312" width="33.75" height="34.1719" fill="#D9D9D9"/>
</mask>
<g mask="url(#mask0_446_1088)">
<path d="M8.84615 32.0195H26.1538C27.5854 32.0195 28.75 30.8968 28.75 29.5167V11.8857H22.6923C21.2607 11.8857 20.0962 10.763 20.0962 9.38289V3.54297H8.84615C7.41458 3.54297 6.25 4.66568 6.25 6.04579V29.5167C6.25 30.8968 7.41458 32.0195 8.84615 32.0195ZM12.3077 15.2784H22.6923C23.1706 15.2784 23.5577 15.6516 23.5577 16.1127C23.5577 16.5738 23.1706 16.947 22.6923 16.947H12.3077C11.8294 16.947 11.4423 16.5738 11.4423 16.1127C11.4423 15.6516 11.8294 15.2784 12.3077 15.2784ZM12.3077 18.6155H22.6923C23.1706 18.6155 23.5577 18.9887 23.5577 19.4498C23.5577 19.9109 23.1706 20.2841 22.6923 20.2841H12.3077C11.8294 20.2841 11.4423 19.9109 11.4423 19.4498C11.4423 18.9887 11.8294 18.6155 12.3077 18.6155ZM12.3077 21.9526H22.6923C23.1706 21.9526 23.5577 22.3258 23.5577 22.7869C23.5577 23.248 23.1706 23.6212 22.6923 23.6212H12.3077C11.8294 23.6212 11.4423 23.248 11.4423 22.7869C11.4423 22.3258 11.8294 21.9526 12.3077 21.9526ZM12.3077 25.2897H19.2308C19.7091 25.2897 20.0962 25.6629 20.0962 26.124C20.0962 26.5851 19.7091 26.9583 19.2308 26.9583H12.3077C11.8294 26.9583 11.4423 26.5851 11.4423 26.124C11.4423 25.6629 11.8294 25.2897 12.3077 25.2897Z" fill="white"/>
<path d="M22.6925 10.2171H28.2432L21.8271 4.03174V9.38283C21.8271 9.84312 22.2151 10.2171 22.6925 10.2171Z" fill="white"/>
</g>
</svg>
