<svg width="29" height="12" viewBox="0 0 29 12" fill="none" xmlns="http://www.w3.org/2000/svg">
<path d="M19.5931 8.20952L24.5793 11.8275C24.9386 12.0884 25.4343 12.0497 25.7487 11.736L28.7359 8.75552C29.0135 8.47634 29.0795 8.0501 28.8994 7.70002C26.6081 3.18601 21.0275 0 14.5005 0C7.9735 0 2.39292 3.18601 0.101598 7.70002C-0.0797039 8.05039 -0.014039 8.47775 0.264086 8.75752L3.25136 11.736C3.56577 12.0497 4.06141 12.0884 4.42077 11.8275L9.4069 8.20952C9.58479 8.0804 9.70927 7.89063 9.75687 7.67602L10.3568 4.96401C10.4467 4.56934 10.75 4.25825 11.1423 4.15851C13.3435 3.59717 15.6505 3.59717 17.8518 4.15851C18.244 4.2581 18.5473 4.5693 18.6367 4.96401L19.2367 7.67602C19.2859 7.89162 19.4128 8.08153 19.5931 8.20952Z" fill="white"/>
</svg>
