<svg width="96" height="120" viewBox="0 0 96 120" fill="none" xmlns="http://www.w3.org/2000/svg">
<circle cx="51.5996" cy="46.5" r="43.5" fill="#F58B35"/>
<circle cx="28.2012" cy="10.5" r="10.5" fill="#F58B35"/>
<circle cx="44.7012" cy="114" r="6" fill="#F58B35"/>
<circle cx="27.9004" cy="81" r="18" fill="#F58B35"/>
<circle cx="72.9004" cy="99" r="9" fill="#F58B35"/>
<circle cx="45.9004" cy="45" r="43" stroke="white" stroke-width="4"/>
<path d="M45.468 23.64C49.428 23.64 52.628 24.76 55.068 27C57.508 29.24 58.728 32.24 58.728 36C58.728 40.2 57.428 43.32 54.828 45.36C52.228 47.36 48.708 48.36 44.268 48.36L44.088 54.06H39.348L39.108 44.58H40.848C44.808 44.58 47.908 43.98 50.148 42.78C52.388 41.58 53.508 39.32 53.508 36C53.508 33.6 52.788 31.7 51.348 30.3C49.908 28.9 47.968 28.2 45.528 28.2C43.048 28.2 41.088 28.88 39.648 30.24C38.248 31.56 37.548 33.38 37.548 35.7H32.388C32.388 33.3 32.928 31.2 34.008 29.4C35.088 27.56 36.608 26.14 38.568 25.14C40.568 24.14 42.868 23.64 45.468 23.64ZM41.688 66.36C40.648 66.36 39.768 66 39.048 65.28C38.328 64.56 37.968 63.68 37.968 62.64C37.968 61.6 38.328 60.72 39.048 60C39.768 59.28 40.648 58.92 41.688 58.92C42.688 58.92 43.528 59.28 44.208 60C44.928 60.72 45.288 61.6 45.288 62.64C45.288 63.68 44.928 64.56 44.208 65.28C43.528 66 42.688 66.36 41.688 66.36Z" fill="white"/>
</svg>
