<svg width="35" height="35" viewBox="0 0 35 35" fill="none" xmlns="http://www.w3.org/2000/svg">
<mask id="mask0_446_1081" style="mask-type:alpha" maskUnits="userSpaceOnUse" x="0" y="0" width="35" height="35">
<rect x="0.625" y="0.6875" width="33.75" height="34.125" fill="#D9D9D9"/>
</mask>
<g mask="url(#mask0_446_1081)">
<path d="M17.5001 23.2183C19.0042 23.2183 20.2913 22.6828 21.3622 21.6123C22.433 20.5418 22.9684 19.254 22.9684 17.75V9.00015C22.9684 7.49617 22.4334 6.20887 21.3622 5.13783C20.2913 4.06704 19.0042 3.53125 17.5001 3.53125C15.9962 3.53125 14.7089 4.06704 13.6379 5.13783C12.5669 6.20869 12.0315 7.49617 12.0315 9.00015V17.75C12.0315 19.2539 12.5672 20.5418 13.6379 21.6123C14.7087 22.6828 15.9962 23.2183 17.5001 23.2183Z" fill="white"/>
<path d="M27.0184 14.7935C26.8026 14.577 26.5457 14.4688 26.2495 14.4688C25.9535 14.4688 25.6972 14.577 25.4805 14.7935C25.2642 15.01 25.156 15.2663 25.156 15.5624V17.75C25.156 19.8579 24.4067 21.6607 22.9085 23.1589C21.4108 24.6571 19.6077 25.4063 17.4999 25.4063C15.3921 25.4063 13.5892 24.6571 12.0909 23.1589C10.5928 21.6611 9.84383 19.8579 9.84383 17.75V15.5624C9.84383 15.2663 9.73555 15.01 9.51917 14.7935C9.30267 14.577 9.0466 14.4688 8.75019 14.4688C8.45378 14.4688 8.19741 14.577 7.98103 14.7935C7.76447 15.01 7.65625 15.2663 7.65625 15.5624V17.75C7.65625 20.2679 8.49664 22.4584 10.1769 24.321C11.8573 26.1836 13.9337 27.2517 16.4061 27.5249V29.781H12.0312C11.735 29.781 11.4787 29.8894 11.2623 30.1059C11.0458 30.3223 10.9375 30.5787 10.9375 30.8749C10.9375 31.1707 11.0458 31.4276 11.2623 31.6439C11.4787 31.8602 11.735 31.9688 12.0312 31.9688H22.9682C23.2643 31.9688 23.521 31.8603 23.7371 31.6439C23.9539 31.4276 24.0622 31.1707 24.0622 30.8749C24.0622 30.5787 23.9539 30.3223 23.7371 30.1059C23.5211 29.8894 23.2644 29.781 22.9682 29.781H18.5939V27.5249C21.0659 27.2517 23.1421 26.1836 24.8226 24.321C26.5031 22.4584 27.3437 20.2679 27.3437 17.75V15.5624C27.3437 15.2664 27.2352 15.0102 27.0184 14.7935Z" fill="white"/>
</g>
</svg>
