<svg width="640" height="816" viewBox="0 0 640 816" fill="none" xmlns="http://www.w3.org/2000/svg">
<circle cx="344.46" cy="316.275" r="295.541" fill="#17B7BC"/>
<circle cx="185.478" cy="71.6969" r="71.3375" fill="#17B7BC"/>
<circle cx="297.58" cy="774.874" r="40.7643" fill="#17B7BC"/>
<circle cx="183.44" cy="550.668" r="122.293" fill="#17B7BC"/>
<circle cx="489.173" cy="672.975" r="61.1464" fill="#17B7BC"/>
<circle cx="305.733" cy="306.091" r="293.232" stroke="white" stroke-width="25"/>
<path d="M308.509 221.159C302.442 221.159 297.309 219.059 293.109 214.859C288.909 210.659 286.809 205.526 286.809 199.459C286.809 193.393 288.909 188.259 293.109 184.059C297.309 179.859 302.442 177.759 308.509 177.759C314.342 177.759 319.242 179.859 323.209 184.059C327.409 188.259 329.509 193.393 329.509 199.459C329.509 205.526 327.409 210.659 323.209 214.859C319.242 219.059 314.342 221.159 308.509 221.159ZM323.909 252.309V444.109H292.059V252.309H323.909Z" fill="white"/>
</svg>
